<svg width="6" height="9" viewBox="0 0 6 9" fill="none" xmlns="http://www.w3.org/2000/svg">
<path d="M2.7825 0.508806C2.45763 0.550977 2.14681 0.666556 1.87661 0.847735C1.72667 0.947696 1.45021 1.22415 1.35025 1.37409C1.20656 1.58807 1.10816 1.81454 1.04568 2.07694C1.01601 2.19721 1.01288 2.27218 1.00664 2.8532L0.998826 3.49826H0.831705C0.731744 3.49826 0.627097 3.50763 0.572431 3.52168C0.303787 3.59197 0.096056 3.80126 0.0257711 4.07147C-0.00859038 4.20579 -0.00859038 7.78876 0.0257711 7.92308C0.096056 8.19329 0.303787 8.40258 0.572431 8.47287C0.65365 8.49317 0.953532 8.49629 3.00116 8.49629C5.57203 8.49629 5.42053 8.50254 5.61108 8.40102C5.79069 8.30418 5.94532 8.09333 5.98437 7.88872C5.99374 7.83405 5.99999 7.15619 5.99999 5.98322C5.99999 3.99962 6.00311 4.08084 5.91252 3.90122C5.85629 3.79033 5.72041 3.65288 5.61108 3.59353C5.47988 3.52325 5.36274 3.49826 5.17063 3.49826H5.0035L4.99569 2.8532C4.98945 2.27218 4.98632 2.19721 4.95665 2.07694C4.85981 1.67554 4.69113 1.37409 4.40842 1.09139C4.11948 0.802441 3.81491 0.633757 3.42287 0.544729C3.29324 0.515054 2.90589 0.493187 2.7825 0.508806ZM3.26669 1.19291C3.4135 1.22415 3.60249 1.30068 3.71807 1.37721C4.02108 1.57557 4.24755 1.91138 4.31159 2.25656C4.32252 2.31122 4.32877 2.57674 4.32877 2.92348V3.49826H3.00116H1.67356V2.91567C1.67356 2.28155 1.67981 2.22844 1.76571 2.00666C1.9219 1.60056 2.29051 1.28975 2.72783 1.19447C2.85279 1.16636 3.14017 1.16636 3.26669 1.19291ZM3.2292 4.87428C3.46036 4.96174 3.61811 5.15542 3.65872 5.4022C3.69464 5.62867 3.59312 5.87701 3.40726 6.01914L3.33072 6.07693L3.32604 6.5127L3.32135 6.9469L3.2745 7.01562C3.12299 7.23117 2.79656 7.19993 2.6966 6.96252C2.67785 6.9141 2.67317 6.8282 2.67317 6.49083V6.07849L2.59351 6.01914C2.40921 5.87857 2.30769 5.62867 2.34361 5.40532C2.39984 5.05233 2.70909 4.80556 3.05583 4.83679C3.10737 4.84148 3.18547 4.85866 3.2292 4.87428Z" fill="#6C5F57"/>
</svg>
