<svg width="74" height="36" viewBox="0 0 74 36" fill="none" xmlns="http://www.w3.org/2000/svg">
<path d="M3.97888 0.17005C3.30227 0.479702 3.04855 0.901953 2.38134 2.82554C1.1409 6.39122 0.971745 9.3939 1.87389 11.9649C2.03364 12.4247 2.184 12.8657 2.20279 12.9408C2.24038 13.0534 2.13701 13.1191 1.77991 13.2129C1.43221 13.2974 1.21607 13.4381 0.934156 13.7384C0.454894 14.2545 0.285742 14.6017 0.116591 15.3617C-0.146533 16.6191 0.0320155 17.8295 0.689826 19.1995C1.07512 19.9877 2.03364 21.3202 2.41893 21.6017C2.5129 21.658 2.76663 21.8738 2.98277 22.0614L3.38685 22.4086L3.18951 22.662C2.5035 23.5346 2.89819 25.0829 4.15743 26.4247C5.05957 27.3912 6.14026 28.0386 7.59684 28.4703C8.0855 28.6204 8.29224 28.7236 8.26404 28.8081C8.24525 28.8832 8.20766 29.1928 8.18887 29.5025C8.15128 29.981 8.17947 30.1124 8.36742 30.3939C8.63054 30.788 9.27895 31.1633 10.1811 31.4448C11.1114 31.7451 12.5398 31.7357 13.5171 31.4354C16.7874 30.422 19.1555 27.3537 19.3998 23.788C19.5126 22.174 19.1085 20.3631 18.3004 18.8523C17.8399 17.9984 17.4828 17.5199 15.998 15.7558C12.2485 11.28 9.01583 6.47567 6.83566 2.14056C6.06508 0.592302 5.79256 0.263884 5.17234 0.0855999C4.68368 -0.0457668 4.41115 -0.0270004 3.97888 0.17005ZM5.11595 1.34297C5.17234 1.39927 5.35088 1.76522 5.52004 2.14994C6.18724 3.67005 8.16068 7.01052 9.92737 9.60972C11.6847 12.1808 13.1318 14.095 15.0771 16.422C16.6182 18.2612 17.0317 18.8429 17.464 19.7438C18.5447 21.9864 18.5729 24.3416 17.5204 26.4998C15.9322 29.7652 12.6338 31.3416 9.91797 30.1405C9.23197 29.8309 9.17558 29.6526 9.50449 28.8362C9.7958 28.1325 9.73942 27.8134 9.31654 27.7102C7.29612 27.2317 6.61012 26.9596 5.66099 26.2652C4.65548 25.5145 3.98828 24.473 4.04466 23.7129C4.07285 23.3282 4.08225 23.3094 4.40176 23.2813C4.58031 23.2719 4.82464 23.2344 4.9374 23.2156C5.21932 23.1499 5.46365 22.7652 5.38847 22.5212C5.36028 22.4086 4.9562 22.0708 4.49573 21.7518C2.73844 20.5601 1.57317 18.9556 1.23487 17.3041C0.990539 16.103 1.27246 14.8738 1.88328 14.414C2.1746 14.1982 2.41893 14.292 2.83241 14.78C3.13312 15.1365 3.48082 15.1928 3.76274 14.9395C4.06345 14.6674 3.97888 14.2169 3.27408 12.481C2.62567 10.8483 2.48471 10.1164 2.48471 8.4368C2.48471 6.95422 2.58808 6.19417 2.99216 4.68345C3.2083 3.88586 3.88491 1.95289 4.09165 1.55879C4.29839 1.14592 4.82464 1.03332 5.11595 1.34297Z" fill="#6C5F57"/>
<path d="M70.0211 0.17005C70.6977 0.479702 70.9515 0.901953 71.6187 2.82554C72.8591 6.39122 73.0283 9.3939 72.1261 11.9649C71.9664 12.4247 71.816 12.8657 71.7972 12.9408C71.7596 13.0534 71.863 13.1191 72.2201 13.2129C72.5678 13.2974 72.7839 13.4381 73.0658 13.7384C73.5451 14.2545 73.7143 14.6017 73.8834 15.3617C74.1465 16.6191 73.968 17.8295 73.3102 19.1995C72.9249 19.9877 71.9664 21.3202 71.5811 21.6017C71.4871 21.658 71.2334 21.8738 71.0172 22.0614L70.6132 22.4086L70.8105 22.662C71.4965 23.5346 71.1018 25.0829 69.8426 26.4247C68.9404 27.3912 67.8597 28.0386 66.4032 28.4703C65.9145 28.6204 65.7078 28.7236 65.736 28.8081C65.7547 28.8832 65.7923 29.1928 65.8111 29.5025C65.8487 29.981 65.8205 30.1124 65.6326 30.3939C65.3695 30.788 64.721 31.1633 63.8189 31.4448C62.8886 31.7451 61.4602 31.7357 60.4829 31.4354C57.2126 30.422 54.8445 27.3537 54.6002 23.788C54.4874 22.174 54.8915 20.3631 55.6996 18.8523C56.1601 17.9984 56.5172 17.5199 58.002 15.7558C61.7515 11.28 64.9842 6.47567 67.1643 2.14056C67.9349 0.592302 68.2074 0.263884 68.8277 0.0855999C69.3163 -0.0457668 69.5888 -0.0270004 70.0211 0.17005ZM68.884 1.34297C68.8277 1.39927 68.6491 1.76522 68.48 2.14994C67.8128 3.67005 65.8393 7.01052 64.0726 9.60972C62.3153 12.1808 60.8682 14.095 58.9229 16.422C57.3818 18.2612 56.9683 18.8429 56.536 19.7438C55.4553 21.9864 55.4271 24.3416 56.4796 26.4998C58.0678 29.7652 61.3662 31.3416 64.082 30.1405C64.768 29.8309 64.8244 29.6526 64.4955 28.8362C64.2042 28.1325 64.2606 27.8134 64.6835 27.7102C66.7039 27.2317 67.3899 26.9596 68.339 26.2652C69.3445 25.5145 70.0117 24.473 69.9553 23.7129C69.9271 23.3282 69.9178 23.3094 69.5982 23.2813C69.4197 23.2719 69.1754 23.2344 69.0626 23.2156C68.7807 23.1499 68.5363 22.7652 68.6115 22.5212C68.6397 22.4086 69.0438 22.0708 69.5043 21.7518C71.2616 20.5601 72.4268 18.9556 72.7651 17.3041C73.0095 16.103 72.7275 14.8738 72.1167 14.414C71.8254 14.1982 71.5811 14.292 71.1676 14.78C70.8669 15.1365 70.5192 15.1928 70.2373 14.9395C69.9365 14.6674 70.0211 14.2169 70.7259 12.481C71.3743 10.8483 71.5153 10.1164 71.5153 8.4368C71.5153 6.95422 71.4119 6.19417 71.0078 4.68345C70.7917 3.88586 70.1151 1.95289 69.9084 1.55879C69.7016 1.14592 69.1754 1.03332 68.884 1.34297Z" fill="#6C5F57"/>
<rect x="11.5467" width="51.7478" height="35.355" rx="5" fill="#F5ECE3"/>
<path d="M13.617 0.0990028C12.7278 0.420414 11.8707 1.33107 11.635 2.22031C11.56 2.48815 11.5386 7.69498 11.5493 17.8836L11.5814 33.1292L11.8707 33.6756C12.2028 34.3077 12.7707 34.8326 13.4456 35.154L13.9385 35.379H37.4553H60.9722L61.465 35.154C62.14 34.8326 62.7078 34.3077 63.0399 33.6756L63.3292 33.1292V17.6479V2.16674L63.0828 1.71676C62.7292 1.04181 62.29 0.581116 61.7007 0.291851L61.1864 0.0240097L37.5624 0.00258255C21.106 -0.00813293 13.842 0.0240097 13.617 0.0990028ZM60.265 1.43821C60.265 1.56677 38.816 17.6694 38.3017 17.9372C37.7767 18.2158 37.2839 18.2479 36.7803 18.0444C36.5875 17.9586 31.7341 14.3481 25.9808 10.0198C20.2275 5.69152 15.3205 2.00603 15.0741 1.83461C14.8384 1.6632 14.6349 1.49178 14.6349 1.43821C14.6349 1.39536 24.8987 1.36321 37.4553 1.36321C50.0119 1.36321 60.2758 1.39536 60.265 1.43821ZM22.5631 9.30202C27.6629 13.1375 31.8734 16.3087 31.9163 16.3516C31.9591 16.4052 27.7486 20.0478 22.5417 24.4511L13.0814 32.4649L13.0492 17.6372C13.0385 9.48415 13.0492 2.70242 13.0814 2.56314C13.1135 2.43458 13.1778 2.32744 13.2206 2.32744C13.2635 2.32744 17.4633 5.46654 22.5631 9.30202ZM61.8293 2.56314C61.8614 2.70242 61.8721 9.48415 61.8614 17.6372L61.8293 32.4649L52.369 24.4511C47.1727 20.0371 42.9301 16.4159 42.9515 16.3945C43.1336 16.223 61.6364 2.32744 61.69 2.32744C61.7328 2.32744 61.7971 2.43458 61.8293 2.56314ZM34.5411 18.3336C35.9554 19.405 36.4375 19.6193 37.4017 19.6193C38.4303 19.63 38.9124 19.4264 40.4123 18.3015L41.6766 17.348L42.2765 17.8408C46.7656 21.6013 60.9186 33.6541 60.9186 33.7184C60.9186 33.7613 60.7686 33.8256 60.5865 33.8684C60.1472 33.9541 14.7634 33.9541 14.3242 33.8684C14.1313 33.8256 14.0027 33.7506 14.0135 33.697C14.0885 33.472 33.2341 17.348 33.3305 17.423C33.3948 17.4658 33.9305 17.8836 34.5411 18.3336Z" fill="#6C5F57"/>
</svg>
