<svg width="6" height="9" viewBox="0 0 6 9" fill="none" xmlns="http://www.w3.org/2000/svg">
<path d="M2.63753 0.537188C1.99207 0.652998 1.44513 1.07231 1.16362 1.66534C0.996727 2.01476 0.984662 2.08664 0.974608 2.78749L0.966565 3.40049L0.914284 3.41247C0.465879 3.51031 0.204476 3.73194 0.0697537 4.12929L0.0174732 4.28903L0.00540851 5.89639C-0.00665621 7.68944 -0.0106778 7.6555 0.130077 7.91906C0.2648 8.17065 0.57044 8.40227 0.855971 8.47016C1.00879 8.5061 5.02835 8.50211 5.16308 8.46417C5.55518 8.35834 5.8387 8.09078 5.95935 7.7134C5.99956 7.58761 5.99956 7.54168 5.99956 5.94231C6.00158 4.46873 5.99755 4.28903 5.96739 4.1852C5.88093 3.88769 5.66175 3.62612 5.39432 3.49633C5.31188 3.45839 5.19927 3.41446 5.14498 3.40248C5.07259 3.38451 4.57995 3.37852 3.32723 3.38052L1.61002 3.38252L1.61806 2.80746C1.6261 2.24638 1.62811 2.22841 1.67838 2.08664C1.7568 1.869 1.84729 1.73123 2.02826 1.55152C2.45455 1.12422 3.07186 1.02638 3.62483 1.29594C3.95862 1.45967 4.23007 1.78115 4.33463 2.13656C4.37686 2.27434 4.4211 2.33623 4.51158 2.38415C4.61011 2.43208 4.71266 2.43208 4.81119 2.38216C4.962 2.30628 5.01227 2.1725 4.962 1.97882C4.91776 1.8111 4.77298 1.50959 4.65837 1.34985C4.20594 0.720887 3.40364 0.397418 2.63753 0.537188ZM3.19251 5.01184C3.32924 5.05776 3.46798 5.19753 3.51423 5.33531C3.57657 5.525 3.53233 5.72267 3.38956 5.87043L3.32321 5.94231V6.39956C3.32321 6.81488 3.31919 6.8628 3.28299 6.93268C3.16838 7.15831 2.83459 7.15831 2.71997 6.93268C2.68378 6.8628 2.67976 6.81488 2.67976 6.39357V5.93233L2.61742 5.86045C2.52291 5.75262 2.47868 5.6448 2.47868 5.50703C2.47868 5.13564 2.83459 4.89004 3.19251 5.01184Z" fill="#6C5F57"/>
</svg>
