<svg xmlns="http://www.w3.org/2000/svg" version="1.1" xmlns:xlink="http://www.w3.org/1999/xlink" width="100" height="100"><svg width="100" height="100" viewBox="0 0 100 100" fill="none" xmlns="http://www.w3.org/2000/svg">
<circle cx="50" cy="50" r="50" fill="white"></circle>
<path d="M9.78541 25.2404C8.97165 25.678 8.6665 26.2747 7.86404 28.9933C6.37216 34.0325 6.16872 38.2761 7.25373 41.9097C7.44586 42.5595 7.6267 43.1827 7.6493 43.2888C7.69451 43.448 7.57019 43.5408 7.14071 43.6734C6.72253 43.7928 6.46258 43.9917 6.12351 44.416C5.5471 45.1454 5.34366 45.6361 5.14022 46.7102C4.82376 48.4872 5.03851 50.1979 5.82966 52.134C6.29304 53.248 7.44586 55.1311 7.90925 55.5289C8.02227 55.6085 8.32743 55.9135 8.58738 56.1787L9.07337 56.6694L8.83603 57.0274C8.01097 58.2607 8.48566 60.4488 10.0001 62.3452C11.0852 63.7111 12.3849 64.6261 14.1367 65.2361C14.7244 65.4483 14.9731 65.5941 14.9392 65.7135C14.9166 65.8196 14.8714 66.2572 14.8488 66.6948C14.8036 67.3711 14.8375 67.5568 15.0635 67.9546C15.38 68.5116 16.1598 69.0421 17.2448 69.4399C18.3637 69.8642 20.0817 69.851 21.2571 69.4266C25.1902 67.9944 28.0384 63.658 28.3322 58.6188C28.4679 56.3378 27.9819 53.7784 27.0099 51.6434C26.4561 50.4366 26.0266 49.7603 24.2409 47.2672C19.7313 40.9416 15.8434 34.1519 13.2213 28.0252C12.2945 25.8371 11.9667 25.373 11.2208 25.121C10.6331 24.9354 10.3053 24.9619 9.78541 25.2404ZM11.153 26.898C11.2208 26.9776 11.4355 27.4948 11.639 28.0385C12.4414 30.1868 14.8149 34.9078 16.9397 38.5811C19.0532 42.2147 20.7937 44.92 23.1332 48.2087C24.9868 50.8079 25.4841 51.6301 26.004 52.9032C27.3037 56.0726 27.3377 59.4012 26.0718 62.4512C24.1617 67.0661 20.1947 69.294 16.9284 67.5966C16.1033 67.159 16.0355 66.907 16.4311 65.7533C16.7814 64.7587 16.7136 64.3078 16.205 64.1619C13.7751 63.4856 12.95 63.101 11.8085 62.1197C10.5992 61.0588 9.79671 59.5868 9.86452 58.5127C9.89843 57.969 9.90973 57.9424 10.294 57.9027C10.5087 57.8894 10.8026 57.8364 10.9382 57.8098C11.2773 57.717 11.5711 57.1733 11.4807 56.8285C11.4468 56.6694 10.9608 56.192 10.407 55.7411C8.29352 54.0569 6.89206 51.7893 6.48518 49.4553C6.19132 47.7579 6.53039 46.0206 7.26503 45.3708C7.6154 45.0658 7.90925 45.1984 8.40655 45.888C8.76822 46.392 9.18639 46.4715 9.52546 46.1135C9.88713 45.7289 9.78541 45.0924 8.93775 42.639C8.1579 40.3316 7.98837 39.2972 7.98837 36.9235C7.98837 34.8282 8.11269 33.754 8.59868 31.619C8.85863 30.4918 9.67239 27.76 9.92103 27.203C10.1697 26.6195 10.8026 26.4604 11.153 26.898Z" fill="#6C5F57"></path>
<path d="M90.2146 25.2404C91.0283 25.678 91.3335 26.2747 92.136 28.9933C93.6278 34.0325 93.8313 38.2761 92.7463 41.9097C92.5541 42.5595 92.3733 43.1827 92.3507 43.2888C92.3055 43.448 92.4298 43.5408 92.8593 43.6734C93.2775 43.7928 93.5374 43.9917 93.8765 44.416C94.4529 45.1454 94.6563 45.6361 94.8598 46.7102C95.1762 48.4872 94.9615 50.1979 94.1703 52.134C93.707 53.248 92.5541 55.1311 92.0907 55.5289C91.9777 55.6085 91.6726 55.9135 91.4126 56.1787L90.9266 56.6694L91.164 57.0274C91.989 58.2607 91.5143 60.4488 89.9999 62.3452C88.9148 63.7111 87.6151 64.6261 85.8633 65.2361C85.2756 65.4483 85.0269 65.5941 85.0608 65.7135C85.0834 65.8196 85.1286 66.2572 85.1512 66.6948C85.1964 67.3711 85.1625 67.5568 84.9365 67.9546C84.62 68.5116 83.8402 69.0421 82.7552 69.4399C81.6363 69.8642 79.9183 69.851 78.7429 69.4266C74.8098 67.9944 71.9616 63.658 71.6678 58.6188C71.5321 56.3378 72.0181 53.7784 72.9901 51.6434C73.5439 50.4366 73.9734 49.7603 75.7591 47.2672C80.2687 40.9416 84.1566 34.1519 86.7787 28.0252C87.7055 25.8371 88.0333 25.373 88.7792 25.121C89.3669 24.9354 89.6947 24.9619 90.2146 25.2404ZM88.847 26.898C88.7792 26.9776 88.5645 27.4948 88.361 28.0385C87.5586 30.1868 85.1851 34.9078 83.0603 38.5811C80.9468 42.2147 79.2063 44.92 76.8668 48.2087C75.0132 50.8079 74.5159 51.6301 73.996 52.9032C72.6963 56.0726 72.6623 59.4012 73.9282 62.4512C75.8383 67.0661 79.8053 69.294 83.0716 67.5966C83.8967 67.159 83.9645 66.907 83.5689 65.7533C83.2186 64.7587 83.2864 64.3078 83.795 64.1619C86.2249 63.4856 87.05 63.101 88.1915 62.1197C89.4008 61.0588 90.2033 59.5868 90.1355 58.5127C90.1016 57.969 90.0903 57.9424 89.706 57.9027C89.4913 57.8894 89.1974 57.8364 89.0618 57.8098C88.7227 57.717 88.4289 57.1733 88.5193 56.8285C88.5532 56.6694 89.0392 56.192 89.593 55.7411C91.7065 54.0569 93.1079 51.7893 93.5148 49.4553C93.8087 47.7579 93.4696 46.0206 92.735 45.3708C92.3846 45.0658 92.0907 45.1984 91.5935 45.888C91.2318 46.392 90.8136 46.4715 90.4745 46.1135C90.1129 45.7289 90.2146 45.0924 91.0623 42.639C91.8421 40.3316 92.0116 39.2972 92.0116 36.9235C92.0116 34.8282 91.8873 33.754 91.4013 31.619C91.1414 30.4918 90.3276 27.76 90.079 27.203C89.8303 26.6195 89.1974 26.4604 88.847 26.898Z" fill="#6C5F57"></path>
<rect x="18.8872" y="25" width="62.2372" height="49.966" rx="5" fill="#F5ECE3"></rect>
<path d="M21.3773 25.1399C20.3078 25.5942 19.2769 26.8812 18.9934 28.1379C18.9032 28.5164 18.8775 35.8751 18.8903 50.2744L18.929 71.8203L19.2769 72.5925C19.6764 73.4859 20.3593 74.2278 21.1711 74.682L21.7638 75H50.0476H78.3314L78.9241 74.682C79.7359 74.2278 80.4188 73.4859 80.8183 72.5925L81.1662 71.8203V49.9413V28.0622L80.8698 27.4263C80.4446 26.4724 79.9163 25.8213 79.2076 25.4125L78.5891 25.0339L50.1765 25.0037C30.3843 24.9885 21.6479 25.0339 21.3773 25.1399ZM77.4809 27.0326C77.4809 27.2143 51.6841 49.9715 51.0656 50.3501C50.4342 50.7437 49.8414 50.7892 49.2358 50.5015C49.0039 50.3804 43.1667 45.2778 36.2472 39.1607C29.3276 33.0436 23.4261 27.8351 23.1297 27.5928C22.8462 27.3505 22.6014 27.1083 22.6014 27.0326C22.6014 26.972 34.9457 26.9266 50.0476 26.9266C65.1495 26.9266 77.4938 26.972 77.4809 27.0326ZM32.1367 38.1462C38.2702 43.5668 43.3342 48.0486 43.3858 48.1092C43.4373 48.1849 38.3733 53.3329 32.1109 59.5559L20.733 70.8816L20.6943 49.9261C20.6814 38.4036 20.6943 28.8192 20.733 28.6224C20.7716 28.4407 20.849 28.2893 20.9005 28.2893C20.952 28.2893 26.0032 32.7257 32.1367 38.1462ZM79.3622 28.6224C79.4009 28.8192 79.4138 38.4036 79.4009 49.9261L79.3622 70.8816L67.9843 59.5559C61.7348 53.3177 56.6321 48.2 56.6579 48.1697C56.8769 47.9275 79.1303 28.2893 79.1947 28.2893C79.2463 28.2893 79.3236 28.4407 79.3622 28.6224ZM46.5427 50.9103C48.2436 52.4244 48.8235 52.7272 49.9832 52.7272C51.2202 52.7424 51.8 52.4547 53.604 50.8649L55.1245 49.5173L55.8461 50.2138C61.2451 55.5284 78.267 72.5622 78.267 72.6531C78.267 72.7137 78.0866 72.8045 77.8675 72.8651C77.3392 72.9862 22.756 72.9862 22.2277 72.8651C21.9958 72.8045 21.8411 72.6985 21.854 72.6228C21.9442 72.3048 44.9707 49.5173 45.0867 49.6233C45.164 49.6839 45.8083 50.2744 46.5427 50.9103Z" fill="#6C5F57"></path>
</svg><style>@media (prefers-color-scheme: light) { :root { filter: none; } }
@media (prefers-color-scheme: dark) { :root { filter: none; } }
</style></svg>